<!-- Copyright (c) Dave Beusing <david.beusing@gmail.com>. -->
<svg xmlns="http://www.w3.org/2000/svg" viewBox="0 0 512 512" role="img" aria-label="rtaime app icon">
	<defs>
		<linearGradient id="bg" x1="0" y1="0" x2="1" y2="1">
			<stop offset="0" stop-color="#101a2a"/>
			<stop offset="1" stop-color="#05070b"/>
		</linearGradient>
		<linearGradient id="silver" x1="0" y1="0" x2="1" y2="1">
			<stop offset="0" stop-color="#ffffff"/>
			<stop offset=".48" stop-color="#dce4f0"/>
			<stop offset="1" stop-color="#8fa2bb"/>
		</linearGradient>
		<linearGradient id="blue" x1="0" y1="0" x2="1" y2="1">
			<stop offset="0" stop-color="#77d9ff"/>
			<stop offset=".5" stop-color="#00a3ff"/>
			<stop offset="1" stop-color="#0059c7"/>
		</linearGradient>
	</defs>
	<rect x="18" y="18" width="476" height="476" rx="96" fill="url(#bg)" stroke="#00a3ff" stroke-width="10"/>
	<g transform="translate(78 74) scale(3.55)">
		<path fill="url(#blue)" d="M12 14h46c19 0 32 11 32 29 0 14-8 24-21 28l23 20H72L51 70l9-9c8-4 12-10 12-18 0-10-7-15-19-15H27z"/>
		<path fill="url(#silver)" d="M12 87V53l33 34z"/>
		<path fill="url(#blue)" d="M42 35v25l21-12.5z"/>
	</g>
</svg>